<?xml version="1.0" encoding="utf-8"?>
<!-- Generator: Adobe Illustrator 22.1.0, SVG Export Plug-In . SVG Version: 6.00 Build 0)  -->
<svg version="1.1" id="レイヤー_1" xmlns="http://www.w3.org/2000/svg" xmlns:xlink="http://www.w3.org/1999/xlink" x="0px"
	 y="0px" viewBox="0 0 170.3 76.5" style="enable-background:new 0 0 170.3 76.5;" xml:space="preserve">
<style type="text/css">
	.st0{fill:#FFFFFF;}
</style>
<title>isetanonline</title>
<path class="st0" d="M44.5,71.6c0.1,0.9-0.2,1.8-0.8,2.5c-0.7,0.6-1.9,0.8-4.8,0.8h-2V61.8h2.3v-0.6h-6.6v0.6h2v13.1h-2v0.6h12.6
	v-4.9h-0.6L44.5,71.6z M67.4,61.8h0.7c0.8,0,1.1,0.1,1.2,0.2s0.2,0.3,0.2,1.4v7.9l-7.9-10.1h-4.5v0.6h1.8l0.2,0.2v11.7v0.5
	c0,0.6-0.2,0.7-1.2,0.7h-0.8v0.6H62v-0.6h-0.7c-1.4,0-1.5,0-1.5-2.1V62.7l10,12.9h0.3V63.4c0-1.2,0-1.2,0.2-1.4s0.3-0.2,1.1-0.2h0.7
	v-0.6h-4.7V61.8z M47.5,61.8h2v13.1h-2v0.6h6.4v-0.6h-2V61.8h2v-0.6h-6.4V61.8z M6.6,60.9C4.9,61,3.3,61.8,2.2,63
	C0.8,64.4,0,66.4,0,68.4c0,3.8,3.1,7.4,6.6,7.4c3.6,0,6.7-3.4,6.7-7.4S10.1,60.9,6.6,60.9z M6.6,75.2c-2.7,0-4.1-2.2-4.1-6.8
	c0-3.1,0.7-6.9,4.1-6.9s4,3.7,4,6.9C10.7,72.9,9.3,75.2,6.6,75.2L6.6,75.2z M25.3,61.8H26c0.8,0,1.1,0.1,1.2,0.2s0.2,0.3,0.2,1.4
	v7.9l-7.9-10.1H15v0.6h1.8L17,62v11.7v0.5c0,0.6-0.2,0.7-1.2,0.7H15v0.6h4.8v-0.6h-0.7c-1.4,0-1.5,0-1.5-2.1V62.7l10.1,12.9H28V63.4
	c0-1.2,0-1.2,0.2-1.4s0.3-0.2,1.1-0.2H30v-0.6h-4.7V61.8z M105.1,67l-1-0.2c-0.9,0-1.8-0.3-2.5-0.8c-0.5-0.4-0.8-1.1-0.8-1.8
	c0-1.5,1.2-2.8,2.7-2.8c0.1,0,0.2,0,0.3,0c2.4,0,4,1.6,4.2,4.2v0.1h0.6v-4.5H108v0.3c0,0.5-0.2,0.5-0.3,0.5l-0.3-0.1l-0.3-0.2
	c-1.5-0.8-2-1-3-1c-2.3-0.1-4.2,1.6-4.3,3.9c0,0.1,0,0.2,0,0.4c-0.1,1.1,0.3,2.2,1,3c0.9,0.7,1.9,1.1,3,1.2l1.1,0.2
	c0.9,0.1,1.8,0.4,2.6,0.9c0.6,0.4,0.9,1.1,0.8,1.8c0,1.9-1.4,3.1-3.5,3.1c-1.6,0-3.1-0.9-3.9-2.2c-0.4-0.8-0.7-1.7-0.6-2.6v-0.1
	h-0.6v5.4h0.6v-0.1c0.1-0.7,0.2-0.8,0.4-0.8l0.7,0.2l0.4,0.2l0.6,0.2c0.8,0.3,1.6,0.5,2.4,0.5c2.4,0.2,4.6-1.6,4.8-4
	c0-0.3,0-0.5,0-0.8c0-1.1-0.4-2.3-1.3-3C107.2,67.4,106.2,67.1,105.1,67z M154.3,75c-0.5,0-0.8-0.2-0.9-1.5l-0.1-1.5
	c0-0.9-0.3-1.9-0.7-2.7c-0.6-0.7-1.5-1.2-2.4-1.3c0.7-0.1,1.3-0.3,1.9-0.6c1-0.6,1.6-1.6,1.6-2.8c0-0.7-0.2-1.3-0.6-1.9
	c-0.8-1.1-2-1.6-4-1.6h-7.3v0.6h2v13.1h-2v0.6h6.5v-0.6H146v-6.5h0.7c0.8,0,1.6,0.1,2.4,0.2c0.9,0.3,1.3,0.9,1.5,2.2l0.2,2
	c0.2,2.1,1,2.9,2.8,2.9c0.6,0,1.2-0.1,1.7-0.3h0.1l-0.2-0.5L154.3,75z M146.7,67.8H146v-6h0.6c2.5,0,3.3,0.2,4,1.1
	c0.4,0.6,0.6,1.2,0.6,1.9c0,0.6-0.2,1.2-0.6,1.7C150,67.4,148.9,67.7,146.7,67.8L146.7,67.8z M87.2,72c0,0.8-0.4,1.7-1.1,2.1l0,0
	c-0.8,0.6-1.9,0.8-4.3,0.8h-2.5v-6.3H80c2.7,0,3.1,0.4,3.1,1.6V71h0.6v-5.6h-0.6v0.8c0,1.2-0.9,1.8-3.1,1.8h-0.7v-6.1h2.3
	c1.3-0.1,2.5,0.1,3.7,0.6c0.7,0.4,0.9,0.8,1.2,2.4V65h0.6l-0.4-3.7H75v0.6h2V75h-2v0.6h12.8v-4.4h-0.6C87.2,71.2,87.2,72,87.2,72z
	 M169.7,71.1V72c0,0.8-0.4,1.7-1.1,2.1l0,0c-0.9,0.6-1.9,0.8-4.3,0.8h-2.5v-6.3h0.7c2.6,0,3.1,0.4,3.1,1.6V71h0.6v-5.6h-0.6v0.8
	c0,1.2-0.9,1.8-3.1,1.8h-0.7v-6.1h2.3c1.3-0.1,2.5,0.1,3.7,0.6c0.7,0.4,0.9,0.8,1.2,2.4V65h0.6l-0.4-3.7h-11.7v0.6h2V75h-2v0.6h12.8
	v-4.4L169.7,71.1z M111.7,61.1l-0.2,4.5h0.6v-0.4c-0.1-0.8,0.1-1.7,0.5-2.4c0.6-0.7,1.7-1,3.9-1h0.2v13.1h-2.2v0.6h6.8v-0.6h-2.2
	V61.8h0.5c0.9,0,1.8,0.1,2.7,0.3c1.1,0.3,1.4,1,1.4,3.1v0.4h0.6l-0.2-4.5L111.7,61.1z M133,60.9c-1.7,0.1-3.2,0.9-4.4,2.1
	c-1.5,1.4-2.3,3.4-2.2,5.4c0,3.8,3.1,7.4,6.6,7.4c3.6,0,6.7-3.4,6.7-7.4S136.6,60.9,133,60.9z M133,75.2c-2.7,0-4.1-2.2-4.1-6.8
	c0-3.1,0.7-6.9,4.1-6.9s4,3.7,4,6.9C137.1,72.9,135.8,75.2,133,75.2L133,75.2z"/>
<path class="st0" d="M66.8,51.3h18.7v-6.4H74.4V34.8h9.1v-6.4h-9.1V20h11.1v-2.9l0,0c0-2.8,0.7-2.9,1.3-3.5l0,0h-20V51.3z"/>
<path class="st0" d="M110.6,13.6H88.8V20h6.4v31.3h7.5V20h6.4v-2.4l0,0C109,16.1,109.5,14.6,110.6,13.6L110.6,13.6z"/>
<path class="st0" d="M160.1,13.6L160.1,13.6L160.1,13.6z"/>
<path class="st0" d="M151.2,31l-5.3-17.4h-7.6v37.7h7.6V33.9l5.3,17.4h7.6V17.6l0,0c0-1.4,0.2-3.5,1.3-4h-8.9L151.2,31z"/>
<path class="st0" d="M127.5,17.5c-0.2-2.2-0.1-3.4,0.7-4h-12L110,51.3h7.8l1-8h5.6l0.9,8h7.7L127.5,17.5L127.5,17.5z M119.4,37.1
	l2.2-16.9l2.1,16.9H119.4z"/>
<polygon class="st0" points="128.2,13.5 128.2,13.6 128.2,13.6 "/>
<path class="st0" d="M54.6,24.7l7.1-2.7c-1.4-0.8-1.4-1.7-2.2-2.9c-4.8-10.7-18.4-5.9-18.6,3.3c-0.1,4.1,2.5,8.1,6.2,11.1
	c3.4,2.8,5.7,4.8,6.9,7.1c0.9,1.8,0.5,5.3-2,5.5c-1.1,0.1-4.6,0.9-4.9-7.7l-6.7,2.5c0.5,15.5,20.6,14.8,20.9,0.7
	c0.1-4.6-4-8.6-6.9-10.8s-6.7-4.3-6.5-8.5C47.9,18.8,53.6,17,54.6,24.7z"/>
<path class="st0" d="M34.4,38.7L34.4,38.7V5.6l0,0c0-2.2,1.3-4.7,2.9-5.3H14.1C15.7,0.9,17,3.4,17,5.6v33.1l0,0
	c-0.2,3.7-1.5,10.5-5.8,12.7h28.9C35.8,49.2,34.6,42.4,34.4,38.7z M25.7,14.2c-2.8,0-5.1-2.3-5.1-5.1S22.9,4,25.7,4s5.1,2.3,5.1,5.1
	C30.8,11.9,28.5,14.2,25.7,14.2L25.7,14.2z"/>
</svg>
