<?xml version="1.0" encoding="utf-8"?>
<!-- Generator: Adobe Illustrator 22.1.0, SVG Export Plug-In . SVG Version: 6.00 Build 0)  -->
<svg version="1.1" id="レイヤー_1" xmlns="http://www.w3.org/2000/svg" xmlns:xlink="http://www.w3.org/1999/xlink" x="0px"
	 y="0px" viewBox="0 0 220.4 49" style="enable-background:new 0 0 220.4 49;" xml:space="preserve">
<style type="text/css">
	.st0{fill:#FFFFFF;}
</style>
<title>mitsukoshi_online</title>
<path class="st0" d="M81.1,36.8c3.7,0,5.8,2.5,5.8,6.1s-2.1,6.2-5.8,6.2s-5.8-2.5-5.8-6.2S77.4,36.8,81.1,36.8z M81.1,47.2
	c2.4,0,3.3-2.2,3.3-4.3s-1-4.2-3.3-4.2s-3.3,2.1-3.3,4.2S78.7,47.2,81.1,47.2z"/>
<path class="st0" d="M89.4,37h2.9l4.5,8.9l0,0V37h2.3v11.8h-2.9l-4.5-8.9l0,0v8.9h-2.3V37z"/>
<path class="st0" d="M102.2,37h2.4v10h4.6v1.9h-7V37z"/>
<path class="st0" d="M111.1,37h2.4v11.8h-2.4V37z"/>
<path class="st0" d="M116.4,37h2.9l4.5,8.9l0,0V37h2.3v11.8h-2.9l-4.5-8.9l0,0v8.9h-2.3V37z"/>
<path class="st0" d="M129.2,37h7v1.9h-4.6v2.9h4.2v1.9h-4.2V47h4.6v1.9h-7V37z"/>
<path class="st0" d="M150.7,39.2c-0.8-0.3-1.6-0.5-2.4-0.5c-0.9-0.1-1.7,0.5-1.9,1.4c0,0.1,0,0.2,0,0.2c0,2,5.2,1.2,5.2,5.2
	c0,2.6-2,3.6-4.4,3.6c-1,0-2-0.2-3-0.5l0.2-2.1c0.8,0.5,1.7,0.7,2.7,0.7c0.9,0,2.1-0.5,2.1-1.5c0-2.3-5.2-1.3-5.2-5.2
	c0-2.6,2-3.6,4.1-3.6c1,0,1.9,0.1,2.8,0.4L150.7,39.2z"/>
<path class="st0" d="M156.3,38.9h-3.4V37h9.2v1.9h-3.4v10h-2.4L156.3,38.9z"/>
<path class="st0" d="M169,36.8c3.7,0,5.8,2.5,5.8,6.1s-2,6.2-5.8,6.2s-5.8-2.5-5.8-6.2S165.2,36.8,169,36.8z M169,47.2
	c2.4,0,3.3-2.2,3.3-4.3s-1-4.2-3.3-4.2s-3.3,2.1-3.3,4.2S166.6,47.2,169,47.2z"/>
<path class="st0" d="M177.3,37h2.6c2.6,0,5.6-0.1,5.6,3.2c0,1.4-1,2.6-2.4,2.8l0,0c0.6,0,1,0.7,1.3,1.2l1.9,4.6h-2.7l-1.4-3.7
	c-0.3-0.9-0.6-1.2-1.6-1.2h-0.8v4.9h-2.4L177.3,37z M179.7,42.1h0.8c1.2,0,2.5-0.2,2.5-1.7s-1.3-1.5-2.5-1.5h-0.8V42.1z"/>
<path class="st0" d="M188.3,37h7v1.9h-4.6v2.9h4.2v1.9h-4.2V47h4.6v1.9h-7V37z"/>
<path class="st0" d="M17.7,0.6h1.6l2.9,0.3l1.7,0.4l1.7,0.6l1.6,0.7l1.5,0.9l1.5,1l1.4,1.1l1.2,1.2l1.1,1.4l1.3,1.9l1.3,2.9l0.9,3.1
	l0.2,1.7l0.1,1.7v1.7L37.5,23l-0.8,2.8l-1.1,2.7l-0.6,1l-1.4,2l-1.7,1.9l-1.1,1l-1.2,0.9l-1.2,0.8l-1.3,0.7l-2.7,1l-2.9,0.6l-2,0.2
	h-2l-1.9-0.2L13.8,38L12,37.3l-1.7-0.8l-1.6-0.9l-1.5-1.1l-1.4-1.2L4.6,32l-1.1-1.4l-1-1.6l-0.8-1.6L1,25.6l-0.5-1.8l-0.3-1.9
	l-0.1-3L0.4,16l0.8-2.8l1.2-2.6L4,8.2l0.9-1.1l1-1l1.1-1l1-1l2.4-1.5l1.7-0.8l1.8-0.6L14.5,1l0.6-0.1l0.5-0.1H16l0.6-0.1h0.5
	L17.7,0.6L17.7,0.6z M17.7,4.6l-1,0.1L15.2,5l-1.4,0.5L12,6.3l-1.7,1L9,8.4L7.8,9.7l-1.1,1.4l-0.9,1.5L5,14.4l-0.6,2L4,18.6v2.2
	l0.3,2.1l0.5,2l0.7,1.4l0.8,1.3l0.9,1.3l1,1.2l1.1,1.1l1.2,0.9l1.3,0.8l1.4,0.7l1.8,0.6l1.9,0.4l1.3,0.1h1.4h0.8h0.5l0.5-0.1h0.4
	l0.5-0.2l0.6-0.1l2.3-0.9l2.2-1.3l2-1.7l1.7-2l1.3-2.2l0.6-1.5l0.4-1.5l0.3-1.5l0.1-1.5l-0.1-1.5l-0.2-1.5l-0.3-1.5l-0.5-1.4
	L32,12.8l-0.7-1.3l-0.9-1.2l-1-1.1l-1.1-1l-1.2-0.9l-1.3-0.8l-1.3-0.7L22.2,5l-2.5-0.4L17.7,4.6z M21.5,5.6l1.2,0.2l0.9,0.5l0.9,0.8
	L25.3,8l0.4,1l-0.1,1.2l-0.2,1.2l0.2,1.5v0.5l0.1,0.5l0.3,0.2l0.5-0.1l0,0l0.2-0.4l0.4-0.2v-0.1l-0.5,0.1h-0.4l0,0v-0.2l0.4-0.3
	l0.3-0.4l-0.1,0.1l-0.3,0.2h-0.3l0,0l0.1-0.5l0.1-0.4l-0.1-1v-0.7l0.2-0.6L27,9.2h0.8l1.1,0.4l1,0.7l0.5,0.7l0.4,0.9l0.1,0.9
	l-0.1,0.4l-0.3,0.4l-0.3,0.2h-0.4v0.1l0.6,0.1l0.4,0.2l0.7,0.8l0.8,0.8l0.2,0.5v0.6l-0.2,0.6l-0.4,0.4l-0.7,0.3h-0.8L29,18l-1.8-0.1
	h-0.4L26.5,18l-0.1,0.4l0.1,0.7l0.3,1.1l0.2,0.1l0,0l0.5-0.4l0.4-0.5v-0.5l0.1-0.4l0.7-0.1l0.9,0.2l0.9,0.3l0.5,0.4l0.3,0.5l0.1,0.6
	l-0.1,0.8L31,21.9l-0.6,0.5l-1.6,1.4l-0.5,0.3l-0.4,0.3v0.3l0.1,0.5l0.4,0.8l0.5,0.1l0.4-0.1l0.8-0.2l0.6-0.2l0.6-0.1v0.1l-0.8,0.5
	l-0.8,0.3l-0.5,0.2l0,0h0.3l1.5-0.5l0,0h0.1l-0.4,0.3l-0.6,0.4l-0.9,0.5h0.1L30,27l0.6-0.3h0.1v0.1L30,27.3l-1.3,0.8l-0.1,0.1h0.1
	l0,0l0.8-0.3l0.4-0.3l0.4-0.2l0,0l0,0v0.1L29.8,28l-0.5,0.4v0.1h0.1l0,0l0.4-0.1v0.2l-0.6,0.5l0.5-0.2l0,0H30l-0.7,0.7l0,0v0.1h0.2
	v0.1l-0.6,0.6l-1.4,1.2l-1.7,1l-2,0.7l-2.1,0.2l-1-0.1l-1-0.3l-1.2-0.6l-1.1-0.8L16,30.8l-1.3-0.5l-1.3-0.1l-1.2,0.2L11,30.9
	L10.4,31l-0.7-0.1l-0.5-0.3l-0.5-0.4L8,29.5l-0.6-0.8l-0.3-0.9v-1l0.1-0.5l0.2-0.2L8.2,26l0.2-0.1l-0.5-0.5l-0.3-0.5l-0.1-0.6
	L7.7,23l0.4-0.8l0,0v-0.1l-1.7,0.3H5.5l-0.4-0.1L4.8,22l-0.3-0.6l-0.2-0.6v-0.6l0.2-0.7l0.6-1.2l0.8-1l0.5-0.5L7,16.6l0.3,0.7
	l0.2,0.2L8,17.6h0.4l1.9-0.8l0.4-0.1l0.4-0.2l0.1-0.3l-0.1-0.3L11,15.8h-0.4L9.7,16l-1,0.3l-0.8,0.1l-0.5-0.1L7,16l-0.3-0.4
	l-0.2-0.5L6.4,14l0.2-1.1L7,12.1l0.5-0.5L8,11.1l0.4-0.3l0.5-0.2h0.2l0.1,0.2l0.2,0.4h0.5h0.6l0.4-0.2l0.1-0.5l-0.2-0.7l-0.4-0.3
	l-0.2-0.1l-0.1-0.2l0.1-0.4l0.3-0.4l0.6-0.7l1-0.9l1.1-0.7l1.1-0.2L15,6l0.6,0.2l0.5,0.4l0.3,0.6l0.2,1v1h0.3h0.5h0.4l0.4,0.2
	l0.3,0.4l0.2,1v0.7l-0.1,0.6l-0.3,0.5L17.9,13l-1,0.6l-0.4,0.2L16.2,14L16,14.5V15h0.5l0.3-0.2l0.3-0.5l0.7-0.6l0.9-0.3l1,0.1
	l0.8,0.5l0.3,0.3l0.3,0.2l0.2-0.1l-0.1-2L21,10.5l-0.3-0.2l-0.3-0.1l-0.3-0.1L20,10l-0.1-0.8L20,8.4L20.3,7l0.3-0.6l0.5-0.5
	L21.5,5.6L21.5,5.6z M28,13.7l-0.6,0.1l0,0h1.2l0.2-0.1h-0.3H28z M21.8,18.3l-0.7,0.1l-0.4,0.1v2.7v1.5v0.2l0,0l0.5-0.9l0.4-0.4
	l0.5-0.2l0.1,0.1l0.1,0.5l0.1,0.2l0.2,0.1h0.2l0.1-0.1v-0.4L22.5,20l-0.1-0.7L22,18.5L21.8,18.3L21.8,18.3z M16.7,19L16,19.2
	l-0.8,0.2l0,0l0,0l0.8,0.3l0.4,0.3l0.4,0.2l0.1-0.5l-0.1-0.6L16.7,19L16.7,19z M13.1,20.1l-1.3,0.5l-0.5,0.5l-0.2,0.7l0.1,0.4
	l0.4,0.1l0.5-0.2l0.9-0.6l0.6-0.9l0.2-0.5H13.1z M13.1,22.2l-1,1l-0.8,1.2l-0.1,0.4l0,0l0,0h0.2l0.8-1.3l0.5-0.7l0.2-0.4L13.1,22.2
	L13.1,22.2z M13.3,23.5L13.3,23.5L12.7,24l-0.5,0.7v0.1h0.5l0.4-0.6L13.3,23.5z M13.9,24l-0.5,0.4l-0.2,0.3L13.1,25h0.5l0.2-0.5
	L13.9,24L13.9,24z M14.9,24.3l-0.7,0.8v0.1l0.3,0.1l0.3-0.5C14.8,24.8,14.9,24.3,14.9,24.3z M15.6,24.4L15.3,25h0.1l0.2-0.2V24.4
	L15.6,24.4L15.6,24.4z M16.6,24.5l-1,1l0.2,0.2l0.4,0.1l0.8,0.1l0.1-0.7v-0.4L17,24.7L16.6,24.5L16.6,24.5z M20.9,25.3L20.8,26
	l0.1,0.7l0.5,0.3l0.8,0.2l1.5,0.1h0.4l0.6-0.2v-0.5l-0.2-0.3H24l-0.5,0.1l-1,0.1l-1-0.2L21,25.8l-0.3-0.4L20.9,25.3z"/>
<path class="st0" d="M216.9,11.6h3.5v16.9h-3.5V11.6z M50.1,28.4h2.5V16.1l7,12.3h3.1l6.7-11.9v11.9H73V11.5h-3.6L61.6,25l-7.5-13.5
	H50C50.1,11.5,50.1,28.4,50.1,28.4z M77.6,11.5h3.6v16.9h-3.6V11.5z M83.4,11.5v2.6h6.4v14.3h3.4V14.1h6.4v-2.6
	C99.6,11.5,83.4,11.5,83.4,11.5z M101.4,26.3l10.5-0.2c0.8-0.2,1.4-0.8,1.7-1.5c0.1-0.8,0.4-1.6-0.2-2.3l-1.2-1l-8.2-0.6
	c-1.3-0.5-2.3-1.4-2.9-2.6c-0.5-1.6-0.2-3.3,0.7-4.6c0.8-0.9,2-1.5,3.2-1.8l10.6,0.1c-0.1,0.8,0.4,2.1-0.4,2.3
	c-3.2-0.2-6.5-0.1-9.7,0.2c-1.1,0.6-1.6,1.9-1.1,3l1.2,1c4,0.9,10.2-1.2,11.3,4.2c0.3,1.4,0,2.8-0.9,4c-0.9,1.1-2.1,1.8-3.5,2h-11.1
	V26.3L101.4,26.3z M137,23.5V11.6h-3.2v11.1l0.1,0.3l-0.4,1.5c-1.3,2.2-3.9,2.6-6.3,2.4c-1.6-0.3-3.3-1.2-3.9-2.8l-0.1-0.5v-12h-3.5
	v11.9l0.1,0.3l0.5,1.5c2.3,4.1,8.2,3.7,12.5,3c2.2-0.5,3.8-2.3,4.2-4.5L137,23.5L137,23.5z M147.3,11.6h4.7l-9,8l10,8.9h-4.9
	l-9.8-8.7L147.3,11.6L147.3,11.6z M171.9,15.8c-2-2.9-5.3-4.5-8.8-4.5c-3.7,0.2-7.2,1.1-9.4,4.5c-1.4,2.5-1.5,5.6-0.4,8.3
	c1.4,2.9,4.4,4.1,7.3,4.7c4.4,0.5,8.6-0.5,11.2-4.3C173.2,21.8,173.2,18.6,171.9,15.8L171.9,15.8z M168,24.3c-1.7,2.1-4.6,3-7.2,2.3
	c-1.6-0.5-2.9-1.6-3.8-3.1c-0.8-1.6-1.1-3.5-0.6-5.3c0.8-2.2,2.6-4,4.9-4.6c2.7-0.6,5.6,0.5,7.1,2.9S169.7,22,168,24.3L168,24.3z
	 M175.6,26h10.9c0.9-0.3,1.3-1.5,1.5-2.3c-0.2-1.4-0.1-1.4-0.9-2l-0.8-0.5c-3.9-1-10,1.4-11.2-4.1c-0.1-2,0.7-4.3,2.6-5l1.1-0.5
	h11.3v2.5h-10c-0.7,0.3-1.2,0.8-1.5,1.5c-0.3,1,0.1,2.1,1.1,2.6c4.2,0.8,10.1-1.1,11.6,4.1c0.5,2-0.4,4.1-2.1,5.3
	c-0.8,0.5-1.7,0.8-2.6,0.9l-11.1-0.1L175.6,26L175.6,26z M194.3,11.6h3.4v6.8h11v-6.8h3.6v16.9h-3.6v-7.4h-10.9v7.4h-3.5V11.6z"/>
</svg>
